<svg xmlns="http://www.w3.org/2000/svg" version="1.1" xmlns:xlink="http://www.w3.org/1999/xlink" xmlns:svgjs="http://svgjs.dev/svgjs" width="2000" height="1247" viewBox="0 0 2000 1247"><g transform="matrix(1,0,0,1,-1.2121212121212466,0.504858299595071)"><svg viewBox="0 0 396 247" data-background-color="#131313" preserveAspectRatio="xMidYMid meet" height="1247" width="2000" xmlns="http://www.w3.org/2000/svg" xmlns:xlink="http://www.w3.org/1999/xlink"><g id="tight-bounds" transform="matrix(1,0,0,1,0.2400000000000091,-0.09999999999999432)"><svg viewBox="0 0 395.52 247.2" height="247.2" width="395.52"><g><svg></svg></g><g><svg viewBox="0 0 395.52 247.2" height="247.2" width="395.52"><mask id="fb376b95-0ab5-4968-9071-42fd369808a7"><rect width="640" height="400" fill="white"></rect><g transform="matrix(1,0,0,1,51.04043681747268,37.08)"><svg viewBox="0 0 293.4391263650546 173.04" height="173.04" width="293.4391263650546"><g><svg viewBox="0 0 293.4391263650546 173.04" height="173.04" width="293.4391263650546"><g><svg viewBox="0 0 293.4391263650546 173.04" height="173.04" width="293.4391263650546"><g><svg viewBox="0 0 293.4391263650546 173.04" height="173.04" width="293.4391263650546"><g id="SvgjsG2426"><svg viewBox="0 0 293.4391263650546 173.04" height="173.04" width="293.4391263650546" id="SvgjsSvg2425"><g><svg viewBox="0 0 293.4391263650546 173.04" height="173.04" width="293.4391263650546"><g transform="matrix(1,0,0,1,0,0)"><svg width="293.4391263650546" viewBox="1.2000000000000002 -32.05 55.349999999999994 33.05" height="173.04" data-palette-color="url(#f97d89f8-90f7-49e9-86ac-1c7da487ed6e)"><path d="M19.5-7L19 0 2.2 0 2.2-31.05 19.5-31.05 19-23.4 10.75-23.4 10.75-18.75 17.9-18.75 17.9-12.15 10.75-12.15 10.75-7 19.5-7ZM55.55-31.05L55.55 0 47.34 0 40.9-14.45 40.5-14.45 40.5 0 32.9 0 32.9-31.05 41.34-31.05 47.5-16.15 47.89-16.15 47.89-31.05 55.55-31.05Z" opacity="1" transform="matrix(1,0,0,1,0,0)" fill="black" class="wordmark-text-0" id="SvgjsPath2424" stroke-width="1" stroke="black" stroke-linejoin="round"></path></svg></g></svg></g></svg></g></svg></g><g></g></svg></g></svg></g></svg></g></mask><g transform="matrix(1,0,0,1,51.04043681747268,37.08)"><svg viewBox="0 0 293.4391263650546 173.04" height="173.04" width="293.4391263650546"><g><svg viewBox="0 0 293.4391263650546 173.04" height="173.04" width="293.4391263650546"><g><svg viewBox="0 0 293.4391263650546 173.04" height="173.04" width="293.4391263650546"><g><svg viewBox="0 0 293.4391263650546 173.04" height="173.04" width="293.4391263650546"><g id="textblocktransform"><svg viewBox="0 0 293.4391263650546 173.04" height="173.04" width="293.4391263650546" id="textblock"><g><svg viewBox="0 0 293.4391263650546 173.04" height="173.04" width="293.4391263650546"><g transform="matrix(1,0,0,1,0,0)"><svg width="293.4391263650546" viewBox="1.2000000000000002 -32.05 55.349999999999994 33.05" height="173.04" data-palette-color="url(#f97d89f8-90f7-49e9-86ac-1c7da487ed6e)"></svg></g></svg></g></svg></g></svg></g><g></g></svg></g></svg></g></svg></g><g mask="url(#fb376b95-0ab5-4968-9071-42fd369808a7)"><g transform="matrix(2.7461802690412873, 0, 0, 2.7461802690412873, 75.16603184765192, 1)"><svg xmlns="http://www.w3.org/2000/svg" xmlns:xlink="http://www.w3.org/1999/xlink" version="1.1" x="0" y="0" viewBox="0.35833249999999595 0.3587183000000067 89.28326340000001 89.2876563" enable-background="new 0 0 90 90" xml:space="preserve" height="89.2876563" width="89.28326340000001" class="icon-none" data-fill-palette-color="accent" id="none"><polygon points="57.928,58.169 57.875,76.027 45.397,63.548 45.397,45.639 " fill="#eeff5f" data-fill-palette-color="accent"></polygon><polygon points="76.027,57.875 58.475,57.927 45.826,45.279 63.432,45.279 " fill="#eeff5f" data-fill-palette-color="accent"></polygon><polygon points="76.027,32.125 63.432,44.721 45.707,44.721 58.355,32.073 " fill="#eeff5f" data-fill-palette-color="accent"></polygon><polygon points="44.838,45.59 44.838,63.314 32.125,76.027 32.074,58.355 " fill="#eeff5f" data-fill-palette-color="accent"></polygon><polygon points="57.928,31.712 45.397,44.243 45.397,26.452 57.875,13.974 " fill="#eeff5f" data-fill-palette-color="accent"></polygon><polygon points="44.838,26.687 44.838,44.291 32.074,31.526 32.125,13.974 " fill="#eeff5f" data-fill-palette-color="accent"></polygon><polygon points="44.479,44.721 26.569,44.721 13.974,32.125 31.832,32.073 " fill="#eeff5f" data-fill-palette-color="accent"></polygon><polygon points="44.36,45.279 31.712,57.927 13.974,57.875 26.569,45.279 " fill="#eeff5f" data-fill-palette-color="accent"></polygon><rect x="58.48" y="58.48" width="18.049" height="18.049" fill="#eeff5f" data-fill-palette-color="accent"></rect><polygon points="76.527,13.474 76.527,31.516 58.914,31.516 58.912,31.518 58.484,31.516 58.484,13.474 " fill="#eeff5f" data-fill-palette-color="accent"></polygon><polygon points="31.518,30.971 31.516,31.516 13.474,31.516 13.474,13.474 31.516,13.474 31.516,30.968 " fill="#eeff5f" data-fill-palette-color="accent"></polygon><rect x="13.471" y="58.48" width="18.05" height="18.049" fill="#eeff5f" data-fill-palette-color="accent"></rect><rect x="67.864" y="35.981" transform="matrix(0.7071 -0.7071 0.7071 0.7071 -9.3022 67.5465)" width="18.042" height="18.042" fill="#eeff5f" data-fill-palette-color="accent"></rect><rect x="35.979" y="4.094" transform="matrix(0.7071 -0.7071 0.7071 0.7071 3.9068 35.6621)" width="18.042" height="18.042" fill="#eeff5f" data-fill-palette-color="accent"></rect><rect x="4.095" y="35.98" transform="matrix(0.7071 -0.7071 0.7071 0.7071 -27.9787 22.4536)" width="18.041" height="18.041" fill="#eeff5f" data-fill-palette-color="accent"></rect><rect x="35.98" y="67.865" transform="matrix(0.7071 -0.7071 0.7071 0.7071 -41.1877 54.3437)" width="18.04" height="18.041" fill="#eeff5f" data-fill-palette-color="accent"></rect></svg></g></g></svg></g><defs></defs><mask id="e3f0a1d0-447f-4e5a-8cba-f70584d7e741"><g id="SvgjsG2436"><svg viewBox="0 0 395.52 247.2" height="247.2" width="395.52"><g><svg></svg></g><g><svg viewBox="0 0 395.52 247.2" height="247.2" width="395.52"><mask id="SvgjsMask2435"><rect width="640" height="400" fill="black"></rect><g transform="matrix(1,0,0,1,51.04043681747268,37.08)"><svg viewBox="0 0 293.4391263650546 173.04" height="173.04" width="293.4391263650546"><g><svg viewBox="0 0 293.4391263650546 173.04" height="173.04" width="293.4391263650546"><g><svg viewBox="0 0 293.4391263650546 173.04" height="173.04" width="293.4391263650546"><g><svg viewBox="0 0 293.4391263650546 173.04" height="173.04" width="293.4391263650546"><g id="SvgjsG2434"><svg viewBox="0 0 293.4391263650546 173.04" height="173.04" width="293.4391263650546" id="SvgjsSvg2433"><g><svg viewBox="0 0 293.4391263650546 173.04" height="173.04" width="293.4391263650546"><g transform="matrix(1,0,0,1,0,0)"><svg width="293.4391263650546" viewBox="1.2000000000000002 -32.05 55.349999999999994 33.05" height="173.04" data-palette-color="url(#f97d89f8-90f7-49e9-86ac-1c7da487ed6e)"><path d="M19.5-7L19 0 2.2 0 2.2-31.05 19.5-31.05 19-23.4 10.75-23.4 10.75-18.75 17.9-18.75 17.9-12.15 10.75-12.15 10.75-7 19.5-7ZM55.55-31.05L55.55 0 47.34 0 40.9-14.45 40.5-14.45 40.5 0 32.9 0 32.9-31.05 41.34-31.05 47.5-16.15 47.89-16.15 47.89-31.05 55.55-31.05Z" opacity="1" transform="matrix(1,0,0,1,0,0)" fill="black" class="wordmark-text-0" id="SvgjsPath2432" stroke-width="1" stroke="black" stroke-linejoin="round"></path></svg></g></svg></g></svg></g></svg></g><g></g></svg></g></svg></g></svg></g></mask><g transform="matrix(1,0,0,1,51.04043681747268,37.08)"><svg viewBox="0 0 293.4391263650546 173.04" height="173.04" width="293.4391263650546"><g><svg viewBox="0 0 293.4391263650546 173.04" height="173.04" width="293.4391263650546"><g><svg viewBox="0 0 293.4391263650546 173.04" height="173.04" width="293.4391263650546"><g><svg viewBox="0 0 293.4391263650546 173.04" height="173.04" width="293.4391263650546"><g id="SvgjsG2431"><svg viewBox="0 0 293.4391263650546 173.04" height="173.04" width="293.4391263650546" id="SvgjsSvg2430"><g><svg viewBox="0 0 293.4391263650546 173.04" height="173.04" width="293.4391263650546"><g transform="matrix(1,0,0,1,0,0)"><svg width="293.4391263650546" viewBox="1.2000000000000002 -32.05 55.349999999999994 33.05" height="173.04" data-palette-color="url(#f97d89f8-90f7-49e9-86ac-1c7da487ed6e)"><path d="M19.5-7L19 0 2.2 0 2.2-31.05 19.5-31.05 19-23.4 10.75-23.4 10.75-18.75 17.9-18.75 17.9-12.15 10.75-12.15 10.75-7 19.5-7ZM55.55-31.05L55.55 0 47.34 0 40.9-14.45 40.5-14.45 40.5 0 32.9 0 32.9-31.05 41.34-31.05 47.5-16.15 47.89-16.15 47.89-31.05 55.55-31.05Z" opacity="1" transform="matrix(1,0,0,1,0,0)" fill="white" class="wordmark-text-0" id="SvgjsPath2429"></path></svg></g></svg></g></svg></g></svg></g><g></g></svg></g></svg></g></svg></g><g mask="url(#fb376b95-0ab5-4968-9071-42fd369808a7)"><g transform="matrix(2.7461802690412873, 0, 0, 2.7461802690412873, 75.16603184765192, 1)"><svg xmlns="http://www.w3.org/2000/svg" xmlns:xlink="http://www.w3.org/1999/xlink" version="1.1" x="0" y="0" viewBox="0.35833249999999595 0.3587183000000067 89.28326340000001 89.2876563" enable-background="new 0 0 90 90" xml:space="preserve" height="89.2876563" width="89.28326340000001" class="icon-none" data-fill-palette-color="accent" id="SvgjsSvg2428"><polygon points="57.928,58.169 57.875,76.027 45.397,63.548 45.397,45.639 " fill="black"></polygon><polygon points="76.027,57.875 58.475,57.927 45.826,45.279 63.432,45.279 " fill="black"></polygon><polygon points="76.027,32.125 63.432,44.721 45.707,44.721 58.355,32.073 " fill="black"></polygon><polygon points="44.838,45.59 44.838,63.314 32.125,76.027 32.074,58.355 " fill="black"></polygon><polygon points="57.928,31.712 45.397,44.243 45.397,26.452 57.875,13.974 " fill="black"></polygon><polygon points="44.838,26.687 44.838,44.291 32.074,31.526 32.125,13.974 " fill="black"></polygon><polygon points="44.479,44.721 26.569,44.721 13.974,32.125 31.832,32.073 " fill="black"></polygon><polygon points="44.36,45.279 31.712,57.927 13.974,57.875 26.569,45.279 " fill="black"></polygon><rect x="58.48" y="58.48" width="18.049" height="18.049" fill="black"></rect><polygon points="76.527,13.474 76.527,31.516 58.914,31.516 58.912,31.518 58.484,31.516 58.484,13.474 " fill="black"></polygon><polygon points="31.518,30.971 31.516,31.516 13.474,31.516 13.474,13.474 31.516,13.474 31.516,30.968 " fill="black"></polygon><rect x="13.471" y="58.48" width="18.05" height="18.049" fill="black"></rect><rect x="67.864" y="35.981" transform="matrix(0.7071 -0.7071 0.7071 0.7071 -9.3022 67.5465)" width="18.042" height="18.042" fill="black"></rect><rect x="35.979" y="4.094" transform="matrix(0.7071 -0.7071 0.7071 0.7071 3.9068 35.6621)" width="18.042" height="18.042" fill="black"></rect><rect x="4.095" y="35.98" transform="matrix(0.7071 -0.7071 0.7071 0.7071 -27.9787 22.4536)" width="18.041" height="18.041" fill="black"></rect><rect x="35.98" y="67.865" transform="matrix(0.7071 -0.7071 0.7071 0.7071 -41.1877 54.3437)" width="18.04" height="18.041" fill="black"></rect></svg></g></g></svg></g><defs><mask></mask></defs></svg><rect width="395.52" height="247.2" fill="black" stroke="none" visibility="hidden"></rect></g></mask><linearGradient x1="0" x2="1" y1="0.548" y2="0.55" id="f97d89f8-90f7-49e9-86ac-1c7da487ed6e"><stop stop-color="#ff6cab" offset="0"></stop><stop stop-color="#7366ff" offset="1"></stop></linearGradient><rect width="395.52" height="247.2" fill="url(#f97d89f8-90f7-49e9-86ac-1c7da487ed6e)" mask="url(#e3f0a1d0-447f-4e5a-8cba-f70584d7e741)" data-fill-palette-color="primary"></rect></svg><rect width="395.52" height="247.2" fill="none" stroke="none" visibility="hidden"></rect></g></svg></g></svg>