<svg xmlns="http://www.w3.org/2000/svg" version="1.1" xmlns:xlink="http://www.w3.org/1999/xlink" xmlns:svgjs="http://svgjs.dev/svgjs" width="2000" height="1247" viewBox="0 0 2000 1247"><g transform="matrix(1,0,0,1,-1.2121212121212466,0.504858299595071)"><svg viewBox="0 0 396 247" data-background-color="#ffffff" preserveAspectRatio="xMidYMid meet" height="1247" width="2000" xmlns="http://www.w3.org/2000/svg" xmlns:xlink="http://www.w3.org/1999/xlink"><g id="tight-bounds" transform="matrix(1,0,0,1,0.2400000000000091,-0.09999999999999432)"><svg viewBox="0 0 395.52 247.2" height="247.2" width="395.52"><g><svg></svg></g><g><svg viewBox="0 0 395.52 247.2" height="247.2" width="395.52"><g transform="matrix(1,0,0,1,75.54432000000001,48.414549498069505)"><svg viewBox="0 0 244.43135999999996 150.37090100386098" height="150.37090100386098" width="244.43135999999996"><g><svg viewBox="0 0 244.43135999999996 150.37090100386098" height="150.37090100386098" width="244.43135999999996"><g><svg viewBox="0 0 244.43135999999996 150.37090100386098" height="150.37090100386098" width="244.43135999999996"><g><svg viewBox="0 0 244.43135999999996 150.37090100386098" height="150.37090100386098" width="244.43135999999996"><g id="textblocktransform"><svg viewBox="0 0 244.43135999999996 150.37090100386098" height="150.37090100386098" width="244.43135999999996" id="textblock"><g><svg viewBox="0 0 244.43135999999996 150.37090100386098" height="150.37090100386098" width="244.43135999999996"><g transform="matrix(1,0,0,1,0,0)"><svg width="244.43135999999996" viewBox="3.25 -35.01 56.9 35.01" height="150.37090100386098" data-palette-color="#2a2c35"><path d="M27.25-7.01L27.25 0 3.25 0 3.25-35.01 27.25-35.01 27.25-28 10.25-28 10.25-21 21.75-21 21.75-13.99 10.25-13.99 10.25-7.01 27.25-7.01ZM60.15-35.01L60.15 0 52.66 0 39.16-23.05 39.16 0 32.15 0 32.15-35.01 39.65-35.01 53.15-11.94 53.15-35.01 60.15-35.01Z" opacity="1" transform="matrix(1,0,0,1,0,0)" fill="#2a2c35" class="wordmark-text-0" data-fill-palette-color="primary" id="text-0"></path></svg></g></svg></g></svg></g></svg></g></svg></g></svg></g></svg></g><path d="M257.488 42.415L257.488 0 10.288 0 10.288 247.2 257.488 247.2 257.488 204.785 243.928 204.785 243.928 233.639 23.849 233.639 23.849 13.561 243.928 13.561 243.928 42.415Z" fill="#2a2c35" stroke="transparent" data-fill-palette-color="tertiary"></path></svg></g><defs></defs></svg><rect width="395.52" height="247.2" fill="none" stroke="none" visibility="hidden"></rect></g></svg></g></svg>