<?xml version="1.0" encoding="UTF-8"?>
<!DOCTYPE svg PUBLIC "-//W3C//DTD SVG 1.1//EN" "http://www.w3.org/Graphics/SVG/1.1/DTD/svg11.dtd">
<svg xmlns="http://www.w3.org/2000/svg" version="1.1" width="577px" height="433px" style="shape-rendering:geometricPrecision; text-rendering:geometricPrecision; image-rendering:optimizeQuality; fill-rule:evenodd; clip-rule:evenodd" xmlns:xlink="http://www.w3.org/1999/xlink">
<g><path style="opacity:0.845" fill="#c8c8c8" d="M 277.5,84.5 C 316.826,82.353 350.826,94.5196 379.5,121C 376.706,122.557 373.706,122.89 370.5,122C 334.364,92.0389 293.697,83.7056 248.5,97C 232.011,102.241 217.344,110.574 204.5,122C 201.406,122.652 198.406,122.318 195.5,121C 218.853,99.8293 246.186,87.6626 277.5,84.5 Z"/></g>
<g><path style="opacity:0.931" fill="#e6e6e6" d="M 264.5,150.5 C 264.082,149.778 263.416,149.278 262.5,149C 259.518,148.502 256.518,148.335 253.5,148.5C 253.246,156.723 253.912,164.723 255.5,172.5C 255.281,173.675 255.614,174.675 256.5,175.5C 259.689,174.411 262.022,172.411 263.5,169.5C 266.167,175.167 266.167,180.833 263.5,186.5C 262.325,182.673 259.658,180.673 255.5,180.5C 255.5,190.167 255.5,199.833 255.5,209.5C 260.552,209.55 265.552,209.05 270.5,208C 273.498,205.176 274.832,201.676 274.5,197.5C 276.167,197.5 277.833,197.5 279.5,197.5C 279.5,204.167 279.5,210.833 279.5,217.5C 276.774,217.736 274.441,216.903 272.5,215C 261.172,214.5 249.838,214.333 238.5,214.5C 238.5,212.833 238.5,211.167 238.5,209.5C 239.93,209.579 241.264,209.246 242.5,208.5C 243.484,205.572 243.817,202.572 243.5,199.5C 244.66,186.34 244.827,173.006 244,159.5C 243.809,157.292 243.309,155.292 242.5,153.5C 242.338,151.176 241.172,149.509 239,148.5C 238.51,147.207 238.343,145.873 238.5,144.5C 248.172,144.666 257.839,144.5 267.5,144C 269.321,141.863 271.654,141.03 274.5,141.5C 275.051,146.419 276.051,151.252 277.5,156C 277.563,158.942 276.23,159.942 273.5,159C 271.743,156.154 269.743,153.488 267.5,151C 266.552,150.517 265.552,150.351 264.5,150.5 Z"/></g>
<g><path style="opacity:0.951" fill="#e1e1e1" d="M 180.5,150.5 C 177.713,149.523 174.713,149.19 171.5,149.5C 171.176,156.354 171.509,163.021 172.5,169.5C 172.201,171.604 172.534,173.604 173.5,175.5C 176.493,174.167 178.827,172.167 180.5,169.5C 181.5,169.5 182.5,169.5 183.5,169.5C 183.5,175.167 183.5,180.833 183.5,186.5C 182.5,186.5 181.5,186.5 180.5,186.5C 179.31,184.131 177.643,182.131 175.5,180.5C 174.432,179.566 173.099,179.232 171.5,179.5C 171.175,187.352 171.508,195.018 172.5,202.5C 172.5,204.833 172.5,207.167 172.5,209.5C 177.552,209.55 182.552,209.05 187.5,208C 188.639,206.22 189.639,204.386 190.5,202.5C 191.794,201.71 192.961,200.71 194,199.5C 195.217,205.101 195.717,210.768 195.5,216.5C 194.5,216.5 193.5,216.5 192.5,216.5C 189.034,214.908 185.367,214.242 181.5,214.5C 173.016,213.507 164.349,213.174 155.5,213.5C 155.5,212.5 155.5,211.5 155.5,210.5C 156.172,209.733 157.005,209.066 158,208.5C 160,189.167 160,169.833 158,150.5C 157.005,149.934 156.172,149.267 155.5,148.5C 155.5,147.5 155.5,146.5 155.5,145.5C 163.019,145.825 170.352,145.492 177.5,144.5C 182.301,144.311 186.967,143.644 191.5,142.5C 192.258,147.369 193.258,152.202 194.5,157C 194.291,158.871 193.291,160.038 191.5,160.5C 189.397,156.894 186.731,153.727 183.5,151C 182.552,150.517 181.552,150.351 180.5,150.5 Z"/></g>
<g><path style="opacity:0.924" fill="#e2e2e2" d="M 212.5,144.5 C 218.979,145.491 225.646,145.824 232.5,145.5C 232.5,147.167 232.5,148.833 232.5,150.5C 226.756,170.148 219.756,189.315 211.5,208C 214,208.5 216.5,209 219,209.5C 221.462,208.841 223.962,208.507 226.5,208.5C 227.833,208.5 228.5,207.833 228.5,206.5C 228.784,203.746 229.451,201.08 230.5,198.5C 231.736,197.754 233.07,197.421 234.5,197.5C 234.5,198.833 234.5,200.167 234.5,201.5C 234.5,206.5 234.5,211.5 234.5,216.5C 233.5,216.5 232.5,216.5 231.5,216.5C 228.754,214.874 225.754,214.207 222.5,214.5C 215.018,213.508 207.352,213.175 199.5,213.5C 199.784,211.585 199.451,209.919 198.5,208.5C 205.302,189.428 212.302,170.428 219.5,151.5C 220.043,151.44 220.376,151.107 220.5,150.5C 217.691,149.2 215.024,149.2 212.5,150.5C 207.29,151.207 204.123,154.207 203,159.5C 200.567,160.118 199.067,158.952 198.5,156C 199.898,151.575 200.898,147.075 201.5,142.5C 205.384,142.424 209.05,143.09 212.5,144.5 Z"/></g>
<g><path style="opacity:0.237" fill="#797979" d="M 177.5,144.5 C 170.352,145.492 163.019,145.825 155.5,145.5C 155.5,146.5 155.5,147.5 155.5,148.5C 154.566,147.432 154.232,146.099 154.5,144.5C 162.167,144.5 169.833,144.5 177.5,144.5 Z"/></g>
<g><path style="opacity:0.247" fill="#767676" d="M 212.5,144.5 C 219.5,144.5 226.5,144.5 233.5,144.5C 233.795,146.735 233.461,148.735 232.5,150.5C 232.5,148.833 232.5,147.167 232.5,145.5C 225.646,145.824 218.979,145.491 212.5,144.5 Z"/></g>
<g><path style="opacity:0.203" fill="#6f6f6f" d="M 303.5,145.5 C 296.5,145.5 289.5,145.5 282.5,145.5C 282.5,146.5 282.5,147.5 282.5,148.5C 281.566,147.432 281.232,146.099 281.5,144.5C 289.019,144.175 296.352,144.508 303.5,145.5 Z"/></g>
<g><path style="opacity:0.956" fill="#e4e4e4" d="M 303.5,145.5 C 314.785,143.711 321.285,148.378 323,159.5C 324.711,168.328 322.545,175.995 316.5,182.5C 320.849,190.209 323.516,198.543 324.5,207.5C 324.062,207.435 323.728,207.601 323.5,208C 324.851,209.617 326.518,210.784 328.5,211.5C 326.031,212.168 323.698,212.835 321.5,213.5C 315.815,211.981 312.315,208.314 311,202.5C 310.667,198.5 310.333,194.5 310,190.5C 309.004,188.34 307.504,186.673 305.5,185.5C 304.791,184.596 303.791,184.263 302.5,184.5C 302.5,183.167 302.5,181.833 302.5,180.5C 304.099,180.768 305.432,180.434 306.5,179.5C 308.934,178.229 310.434,176.229 311,173.5C 311.623,166.477 311.457,159.477 310.5,152.5C 310.5,151.167 309.833,150.5 308.5,150.5C 307.833,150.5 307.167,150.5 306.5,150.5C 304.052,149.527 301.385,149.194 298.5,149.5C 298.17,166.009 298.504,182.342 299.5,198.5C 299.335,201.85 299.502,205.183 300,208.5C 300.383,209.056 300.883,209.389 301.5,209.5C 301.804,210.15 302.137,210.817 302.5,211.5C 299.167,211.833 295.833,212.167 292.5,212.5C 288.761,212.486 285.428,211.82 282.5,210.5C 283.172,209.733 284.005,209.066 285,208.5C 286.983,189.165 286.983,169.831 285,150.5C 284.005,149.934 283.172,149.267 282.5,148.5C 282.5,147.5 282.5,146.5 282.5,145.5C 289.5,145.5 296.5,145.5 303.5,145.5 Z"/></g>
<g><path style="opacity:0.139" fill="#414141" d="M 180.5,150.5 C 177.833,150.5 175.167,150.5 172.5,150.5C 172.5,156.833 172.5,163.167 172.5,169.5C 171.509,163.021 171.176,156.354 171.5,149.5C 174.713,149.19 177.713,149.523 180.5,150.5 Z"/></g>
<g><path style="opacity:0.043" fill="#303030" d="M 212.5,150.5 C 215.024,149.2 217.691,149.2 220.5,150.5C 220.376,151.107 220.043,151.44 219.5,151.5C 217.236,150.781 214.903,150.448 212.5,150.5 Z"/></g>
<g><path style="opacity:0.365" fill="#a7a7a7" d="M 264.5,150.5 C 261.5,150.5 258.5,150.5 255.5,150.5C 255.5,157.833 255.5,165.167 255.5,172.5C 253.912,164.723 253.246,156.723 253.5,148.5C 256.518,148.335 259.518,148.502 262.5,149C 263.416,149.278 264.082,149.778 264.5,150.5 Z"/></g>
<g><path style="opacity:0.129" fill="#474747" d="M 306.5,150.5 C 304.167,150.5 301.833,150.5 299.5,150.5C 299.5,166.5 299.5,182.5 299.5,198.5C 298.504,182.342 298.17,166.009 298.5,149.5C 301.385,149.194 304.052,149.527 306.5,150.5 Z"/></g>
<g><path style="opacity:0.02" fill="#656565" d="M 308.5,150.5 C 309.833,150.5 310.5,151.167 310.5,152.5C 309.167,152.5 308.5,151.833 308.5,150.5 Z"/></g>
<g><path style="opacity:0.3" fill="#8a8a8a" d="M 242.5,153.5 C 243.309,155.292 243.809,157.292 244,159.5C 244.827,173.006 244.66,186.34 243.5,199.5C 243.692,184.149 243.359,168.816 242.5,153.5 Z"/></g>
<g><path style="opacity:0.104" fill="#363636" d="M 180.5,169.5 C 181.568,168.566 182.901,168.232 184.5,168.5C 184.5,174.833 184.5,181.167 184.5,187.5C 182.901,187.768 181.568,187.434 180.5,186.5C 181.5,186.5 182.5,186.5 183.5,186.5C 183.5,180.833 183.5,175.167 183.5,169.5C 182.5,169.5 181.5,169.5 180.5,169.5 Z"/></g>
<g><path style="opacity:0.675" fill="#b0b0b0" d="M 263.5,186.5 C 266.167,180.833 266.167,175.167 263.5,169.5C 264.568,168.566 265.901,168.232 267.5,168.5C 267.5,174.833 267.5,181.167 267.5,187.5C 265.901,187.768 264.568,187.434 263.5,186.5 Z"/></g>
<g><path style="opacity:0.137" fill="#515151" d="M 175.5,180.5 C 174.5,180.5 173.5,180.5 172.5,180.5C 172.5,187.833 172.5,195.167 172.5,202.5C 171.508,195.018 171.175,187.352 171.5,179.5C 173.099,179.232 174.432,179.566 175.5,180.5 Z"/></g>
<g><path style="opacity:0.165" fill="#515151" d="M 306.5,179.5 C 305.432,180.434 304.099,180.768 302.5,180.5C 302.5,181.833 302.5,183.167 302.5,184.5C 303.791,184.263 304.791,184.596 305.5,185.5C 304.167,185.5 302.833,185.5 301.5,185.5C 301.5,183.5 301.5,181.5 301.5,179.5C 303.167,179.5 304.833,179.5 306.5,179.5 Z"/></g>
<g><path style="opacity:0.314" fill="#939393" d="M 192.5,216.5 C 193.5,216.5 194.5,216.5 195.5,216.5C 195.717,210.768 195.217,205.101 194,199.5C 192.961,200.71 191.794,201.71 190.5,202.5C 190.651,198.686 192.651,197.019 196.5,197.5C 196.5,204.167 196.5,210.833 196.5,217.5C 194.901,217.768 193.568,217.434 192.5,216.5 Z"/></g>
<g><path style="opacity:0.525" fill="#676767" d="M 228.5,206.5 C 228.5,207.833 227.833,208.5 226.5,208.5C 226.5,207.167 227.167,206.5 228.5,206.5 Z"/></g>
<g><path style="opacity:0.342" fill="#b0b0b0" d="M 198.5,208.5 C 199.451,209.919 199.784,211.585 199.5,213.5C 207.352,213.175 215.018,213.508 222.5,214.5C 214.5,214.5 206.5,214.5 198.5,214.5C 198.5,212.5 198.5,210.5 198.5,208.5 Z"/></g>
<g><path style="opacity:0.385" fill="#a9a9a9" d="M 301.5,209.5 C 302.5,209.5 303.5,209.5 304.5,209.5C 304.5,211.167 304.5,212.833 304.5,214.5C 296.833,214.5 289.167,214.5 281.5,214.5C 281.232,212.901 281.566,211.568 282.5,210.5C 285.428,211.82 288.761,212.486 292.5,212.5C 295.833,212.167 299.167,211.833 302.5,211.5C 302.137,210.817 301.804,210.15 301.5,209.5 Z"/></g>
<g><path style="opacity:0.369" fill="#888888" d="M 324.5,207.5 C 326.142,209.081 328.142,209.747 330.5,209.5C 330.5,211.167 330.5,212.833 330.5,214.5C 327.391,214.736 324.391,214.403 321.5,213.5C 323.698,212.835 326.031,212.168 328.5,211.5C 326.518,210.784 324.851,209.617 323.5,208C 323.728,207.601 324.062,207.435 324.5,207.5 Z"/></g>
<g><path style="opacity:0.12" fill="#414141" d="M 234.5,201.5 C 235.488,206.64 235.821,211.974 235.5,217.5C 233.901,217.768 232.568,217.434 231.5,216.5C 232.5,216.5 233.5,216.5 234.5,216.5C 234.5,211.5 234.5,206.5 234.5,201.5 Z"/></g>
<g><path style="opacity:0.34" fill="#ababab" d="M 155.5,210.5 C 155.5,211.5 155.5,212.5 155.5,213.5C 164.349,213.174 173.016,213.507 181.5,214.5C 172.5,214.5 163.5,214.5 154.5,214.5C 154.232,212.901 154.566,211.568 155.5,210.5 Z"/></g>
<g><path style="opacity:0.923" fill="#e8e8e8" d="M 301.5,235.5 C 300.509,241.979 300.176,248.646 300.5,255.5C 301.791,255.737 302.791,255.404 303.5,254.5C 306.292,253.608 307.625,251.608 307.5,248.5C 309.167,248.5 310.833,248.5 312.5,248.5C 312.5,254.833 312.5,261.167 312.5,267.5C 310.833,267.5 309.167,267.5 307.5,267.5C 307.759,263.763 306.093,261.43 302.5,260.5C 302.44,259.957 302.107,259.624 301.5,259.5C 300.501,269.478 300.168,279.478 300.5,289.5C 304.371,289.815 308.038,289.482 311.5,288.5C 312.873,288.657 314.207,288.49 315.5,288C 318.103,284.961 319.769,281.461 320.5,277.5C 321.736,276.754 323.07,276.421 324.5,276.5C 326.137,283.401 325.804,290.068 323.5,296.5C 321.698,295.542 319.698,294.875 317.5,294.5C 315.167,294.5 312.833,294.5 310.5,294.5C 302.016,293.507 293.349,293.174 284.5,293.5C 284.5,292.5 284.5,291.5 284.5,290.5C 284.842,289.662 285.508,289.328 286.5,289.5C 287.5,289.5 288.5,289.5 289.5,289.5C 289.83,272.658 289.497,255.992 288.5,239.5C 288.817,236.428 288.484,233.428 287.5,230.5C 286.817,230.137 286.15,229.804 285.5,229.5C 285.586,228.504 285.252,227.671 284.5,227C 292.367,226.643 300.033,225.81 307.5,224.5C 311.773,223.922 315.773,222.589 319.5,220.5C 320.179,225.726 321.179,230.893 322.5,236C 322.673,240.495 321.173,241.329 318,238.5C 314.972,231.301 309.472,228.301 301.5,229.5C 301.5,231.5 301.5,233.5 301.5,235.5 Z"/></g>
<g><path style="opacity:0.133" fill="#373737" d="M 274.5,221.5 C 273.167,221.833 271.833,222.167 270.5,222.5C 271.538,220.481 272.872,220.147 274.5,221.5 Z"/></g>
<g><path style="opacity:0.928" fill="#d9d9d9" d="M 274.5,221.5 C 276.533,226.091 278.199,230.924 279.5,236C 279.022,237.642 278.022,238.809 276.5,239.5C 276.158,238.662 275.492,238.328 274.5,238.5C 273.242,236.313 272.242,233.98 271.5,231.5C 271.5,230.167 270.833,229.5 269.5,229.5C 265.091,228.618 261.591,229.952 259,233.5C 258.333,250.833 258.333,268.167 259,285.5C 263.634,290.863 267.968,290.53 272,284.5C 273.199,281.274 273.699,277.941 273.5,274.5C 275.5,274.5 277.5,274.5 279.5,274.5C 279.893,291.985 271.56,298.485 254.5,294C 251.65,291.145 249.15,287.978 247,284.5C 245.418,269.546 245.085,254.546 246,239.5C 246.378,232.383 249.878,227.716 256.5,225.5C 260.122,225.678 263.456,225.011 266.5,223.5C 267.959,223.567 269.292,223.234 270.5,222.5C 271.833,222.167 273.167,221.833 274.5,221.5 Z"/></g>
<g><path style="opacity:0.926" fill="#dedede" d="M 242.5,290.5 C 242.586,291.496 242.252,292.329 241.5,293C 235.167,293.667 228.833,293.667 222.5,293C 221.748,292.329 221.414,291.496 221.5,290.5C 223.319,289.416 224.985,288.082 226.5,286.5C 225.518,283.904 224.851,281.238 224.5,278.5C 220.167,278.5 215.833,278.5 211.5,278.5C 210.865,281.493 210.699,284.493 211,287.5C 212.145,288.636 213.312,289.636 214.5,290.5C 214.586,291.496 214.252,292.329 213.5,293C 209.167,293.667 204.833,293.667 200.5,293C 199.748,292.329 199.414,291.496 199.5,290.5C 201.475,289.354 202.975,287.687 204,285.5C 208.82,264.897 213.32,244.231 217.5,223.5C 219.833,223.5 222.167,223.5 224.5,223.5C 228.423,244.279 232.923,264.946 238,285.5C 239.025,287.687 240.525,289.354 242.5,290.5 Z M 217.5,250.5 C 218.222,250.918 218.722,251.584 219,252.5C 220.277,259.163 221.444,265.83 222.5,272.5C 218.878,273.076 215.878,272.076 213.5,269.5C 215.346,263.272 216.679,256.938 217.5,250.5 Z"/></g>
<g><path style="opacity:0.212" fill="#787878" d="M 165.5,224.5 C 161.702,225.483 157.702,225.817 153.5,225.5C 153.5,226.5 153.5,227.5 153.5,228.5C 152.566,227.432 152.232,226.099 152.5,224.5C 156.833,224.5 161.167,224.5 165.5,224.5 Z"/></g>
<g><path style="opacity:0.267" fill="#868686" d="M 198.5,228.5 C 198.586,227.504 198.252,226.671 197.5,226C 193.167,225.333 188.833,225.333 184.5,226C 183.748,226.671 183.414,227.504 183.5,228.5C 182.566,227.432 182.232,226.099 182.5,224.5C 188.167,224.5 193.833,224.5 199.5,224.5C 199.768,226.099 199.434,227.432 198.5,228.5 Z"/></g>
<g><path style="opacity:0.321" fill="#7e7e7e" d="M 266.5,223.5 C 263.456,225.011 260.122,225.678 256.5,225.5C 259.507,223.825 262.84,223.159 266.5,223.5 Z"/></g>
<g><path style="opacity:0.322" fill="#8e8e8e" d="M 307.5,224.5 C 300.033,225.81 292.367,226.643 284.5,227C 285.252,227.671 285.586,228.504 285.5,229.5C 283.787,228.365 283.12,226.698 283.5,224.5C 291.5,224.5 299.5,224.5 307.5,224.5 Z"/></g>
<g><path style="opacity:0.258" fill="#838383" d="M 347.5,228.5 C 347.5,227.5 347.5,226.5 347.5,225.5C 340.5,225.5 333.5,225.5 326.5,225.5C 326.5,226.5 326.5,227.5 326.5,228.5C 325.566,227.432 325.232,226.099 325.5,224.5C 333.167,224.5 340.833,224.5 348.5,224.5C 348.768,226.099 348.434,227.432 347.5,228.5 Z"/></g>
<g><path style="opacity:0.271" fill="#888888" d="M 370.5,228.5 C 370.5,227.5 370.5,226.5 370.5,225.5C 365.5,225.5 360.5,225.5 355.5,225.5C 355.5,226.5 355.5,227.5 355.5,228.5C 354.566,227.432 354.232,226.099 354.5,224.5C 360.167,224.5 365.833,224.5 371.5,224.5C 371.768,226.099 371.434,227.432 370.5,228.5 Z"/></g>
<g><path style="opacity:0.245" fill="#797979" d="M 394.5,225.5 C 387.5,225.5 380.5,225.5 373.5,225.5C 373.5,226.5 373.5,227.5 373.5,228.5C 372.566,227.432 372.232,226.099 372.5,224.5C 380.019,224.175 387.352,224.508 394.5,225.5 Z"/></g>
<g><path style="opacity:0.95" fill="#e6e6e6" d="M 165.5,224.5 C 167.352,225.089 169.185,225.756 171,226.5C 176.215,237.591 181.382,248.591 186.5,259.5C 186.838,261.854 187.338,264.187 188,266.5C 188.825,256.658 188.658,246.991 187.5,237.5C 187.663,235.143 187.497,232.81 187,230.5C 185.698,229.915 184.531,229.249 183.5,228.5C 183.414,227.504 183.748,226.671 184.5,226C 188.833,225.333 193.167,225.333 197.5,226C 198.252,226.671 198.586,227.504 198.5,228.5C 197.739,229.391 196.739,230.058 195.5,230.5C 194.516,233.428 194.183,236.428 194.5,239.5C 193.503,257.326 193.17,275.326 193.5,293.5C 192.167,293.5 190.833,293.5 189.5,293.5C 188.504,293.586 187.671,293.252 187,292.5C 179.527,276.558 172.36,260.558 165.5,244.5C 165.477,242.073 164.977,239.74 164,237.5C 163.173,251.673 163.339,265.673 164.5,279.5C 164.336,282.187 164.503,284.854 165,287.5C 167.368,288.369 168.868,290.035 169.5,292.5C 168.311,293.429 166.978,293.762 165.5,293.5C 161.818,293.665 158.152,293.499 154.5,293C 153.748,292.329 153.414,291.496 153.5,290.5C 155.25,289.527 156.75,288.193 158,286.5C 158.667,268.5 158.667,250.5 158,232.5C 156.75,230.807 155.25,229.473 153.5,228.5C 153.5,227.5 153.5,226.5 153.5,225.5C 157.702,225.817 161.702,225.483 165.5,224.5 Z"/></g>
<g><path style="opacity:0.954" fill="#e6e6e6" d="M 394.5,225.5 C 403.051,223.86 409.218,226.86 413,234.5C 416.15,245.081 414.317,254.581 407.5,263C 409.359,264.558 410.859,266.391 412,268.5C 413.385,273.761 414.385,279.094 415,284.5C 415.996,286.66 417.496,288.327 419.5,289.5C 419.5,290.5 419.5,291.5 419.5,292.5C 417.265,292.205 415.265,292.539 413.5,293.5C 409.676,292.665 406.51,290.665 404,287.5C 402.453,280.885 401.119,274.218 400,267.5C 399.292,266.619 398.458,265.953 397.5,265.5C 396.432,264.566 395.099,264.232 393.5,264.5C 393.5,263.167 393.5,261.833 393.5,260.5C 395.857,260.663 398.19,260.497 400.5,260C 401.252,259.329 401.586,258.496 401.5,257.5C 402.48,249.856 402.647,242.189 402,234.5C 399.181,230.507 395.347,228.84 390.5,229.5C 390.333,248.836 390.5,268.17 391,287.5C 393.368,288.369 394.868,290.035 395.5,292.5C 394.311,293.429 392.978,293.762 391.5,293.5C 385.265,293.147 379.265,292.147 373.5,290.5C 374.531,289.751 375.698,289.085 377,288.5C 377.179,284.975 377.679,281.641 378.5,278.5C 379.661,264.339 379.827,250.006 379,235.5C 378.722,234.584 378.222,233.918 377.5,233.5C 377.592,230.6 376.259,228.933 373.5,228.5C 373.5,227.5 373.5,226.5 373.5,225.5C 380.5,225.5 387.5,225.5 394.5,225.5 Z"/></g>
<g><path style="opacity:0.921" fill="#dadada" d="M 347.5,228.5 C 345.407,229.058 343.907,230.391 343,232.5C 342.333,248.833 342.333,265.167 343,281.5C 346.097,289.819 350.93,291.152 357.5,285.5C 359.98,267.2 360.147,248.867 358,230.5C 357.005,229.934 356.172,229.267 355.5,228.5C 355.5,227.5 355.5,226.5 355.5,225.5C 360.5,225.5 365.5,225.5 370.5,225.5C 370.5,226.5 370.5,227.5 370.5,228.5C 369.312,229.364 368.145,230.364 367,231.5C 366.627,249.178 365.96,266.845 365,284.5C 359.058,295.77 350.224,298.603 338.5,293C 337.042,290.54 335.209,288.373 333,286.5C 332.012,283.576 331.346,280.576 331,277.5C 330.667,262.167 330.333,246.833 330,231.5C 328.855,230.364 327.688,229.364 326.5,228.5C 326.5,227.5 326.5,226.5 326.5,225.5C 333.5,225.5 340.5,225.5 347.5,225.5C 347.5,226.5 347.5,227.5 347.5,228.5 Z"/></g>
<g><path style="opacity:0.66" fill="#5d5d5d" d="M 269.5,229.5 C 270.833,229.5 271.5,230.167 271.5,231.5C 270.167,231.5 269.5,230.833 269.5,229.5 Z"/></g>
<g><path style="opacity:0.004" fill="#000000" d="M 301.5,235.5 C 300.877,242.255 301.544,248.588 303.5,254.5C 302.791,255.404 301.791,255.737 300.5,255.5C 300.176,248.646 300.509,241.979 301.5,235.5 Z"/></g>
<g><path style="opacity:0.326" fill="#818181" d="M 165.5,244.5 C 164.612,256.14 164.279,267.807 164.5,279.5C 163.339,265.673 163.173,251.673 164,237.5C 164.977,239.74 165.477,242.073 165.5,244.5 Z"/></g>
<g><path style="opacity:0.055" fill="#2c2c2c" d="M 274.5,238.5 C 275.492,238.328 276.158,238.662 276.5,239.5C 275.673,240.439 275.006,240.105 274.5,238.5 Z"/></g>
<g><path style="opacity:0.125" fill="#4b4b4b" d="M 194.5,239.5 C 194.5,257.833 194.5,276.167 194.5,294.5C 192.585,294.784 190.919,294.451 189.5,293.5C 190.833,293.5 192.167,293.5 193.5,293.5C 193.17,275.326 193.503,257.326 194.5,239.5 Z"/></g>
<g><path style="opacity:0.457" fill="#b6b6b6" d="M 377.5,233.5 C 378.222,233.918 378.722,234.584 379,235.5C 379.827,250.006 379.661,264.339 378.5,278.5C 378.73,263.478 378.397,248.478 377.5,233.5 Z"/></g>
<g><path style="opacity:0.163" fill="#353535" d="M 187.5,237.5 C 188.658,246.991 188.825,256.658 188,266.5C 187.338,264.187 186.838,261.854 186.5,259.5C 187.43,252.223 187.764,244.89 187.5,237.5 Z"/></g>
<g><path style="opacity:0.004" fill="#000000" d="M 302.5,260.5 C 301.506,269.652 301.173,278.985 301.5,288.5C 304.833,288.5 308.167,288.5 311.5,288.5C 308.038,289.482 304.371,289.815 300.5,289.5C 300.168,279.478 300.501,269.478 301.5,259.5C 302.107,259.624 302.44,259.957 302.5,260.5 Z"/></g>
<g><path style="opacity:0.055" fill="#484848" d="M 401.5,257.5 C 401.586,258.496 401.252,259.329 400.5,260C 398.19,260.497 395.857,260.663 393.5,260.5C 393.5,261.833 393.5,263.167 393.5,264.5C 395.099,264.232 396.432,264.566 397.5,265.5C 395.833,265.5 394.167,265.5 392.5,265.5C 392.5,263.5 392.5,261.5 392.5,259.5C 395.752,259.71 398.752,259.044 401.5,257.5 Z"/></g>
<g><path style="opacity:0.239" fill="#5a5a5a" d="M 288.5,239.5 C 289.497,255.992 289.83,272.658 289.5,289.5C 288.5,289.5 287.5,289.5 286.5,289.5C 286.783,288.711 287.283,288.044 288,287.5C 288.5,271.503 288.667,255.503 288.5,239.5 Z"/></g>
<g><path style="opacity:0.295" fill="#9a9a9a" d="M 199.5,290.5 C 199.414,291.496 199.748,292.329 200.5,293C 204.833,293.667 209.167,293.667 213.5,293C 214.252,292.329 214.586,291.496 214.5,290.5C 215.434,291.568 215.768,292.901 215.5,294.5C 209.833,294.5 204.167,294.5 198.5,294.5C 198.232,292.901 198.566,291.568 199.5,290.5 Z"/></g>
<g><path style="opacity:0.302" fill="#9b9b9b" d="M 221.5,290.5 C 221.414,291.496 221.748,292.329 222.5,293C 228.833,293.667 235.167,293.667 241.5,293C 242.252,292.329 242.586,291.496 242.5,290.5C 243.434,291.568 243.768,292.901 243.5,294.5C 235.833,294.5 228.167,294.5 220.5,294.5C 220.232,292.901 220.566,291.568 221.5,290.5 Z"/></g>
<g><path style="opacity:0.351" fill="#939393" d="M 419.5,289.5 C 421.213,290.635 421.88,292.302 421.5,294.5C 418.721,294.721 416.054,294.388 413.5,293.5C 415.265,292.539 417.265,292.205 419.5,292.5C 419.5,291.5 419.5,290.5 419.5,289.5 Z"/></g>
<g><path style="opacity:0.659" fill="#b2b2b2" d="M 373.5,290.5 C 379.265,292.147 385.265,293.147 391.5,293.5C 385.225,294.418 378.892,294.751 372.5,294.5C 372.232,292.901 372.566,291.568 373.5,290.5 Z"/></g>
<g><path style="opacity:0.278" fill="#969696" d="M 153.5,290.5 C 153.414,291.496 153.748,292.329 154.5,293C 158.152,293.499 161.818,293.665 165.5,293.5C 161.366,294.485 157.032,294.818 152.5,294.5C 152.232,292.901 152.566,291.568 153.5,290.5 Z"/></g>
<g><path style="opacity:0.318" fill="#a1a1a1" d="M 284.5,290.5 C 284.5,291.5 284.5,292.5 284.5,293.5C 293.349,293.174 302.016,293.507 310.5,294.5C 301.5,294.5 292.5,294.5 283.5,294.5C 283.232,292.901 283.566,291.568 284.5,290.5 Z"/></g>
<g><path style="opacity:0.397" fill="#676767" d="M 317.5,294.5 C 319.698,294.875 321.698,295.542 323.5,296.5C 321.012,297.601 319.012,296.934 317.5,294.5 Z"/></g>
<g><path style="opacity:0.214" fill="#4b4b4b" d="M 203.5,317.5 C 200.928,316.292 198.594,316.625 196.5,318.5C 195.227,317.923 195.227,317.257 196.5,316.5C 199.25,314.922 201.583,315.255 203.5,317.5 Z"/></g>
<g><path style="opacity:0.881" fill="#cccccc" d="M 203.5,317.5 C 242.448,347.587 285.448,355.087 332.5,340C 337.833,337.333 343.167,334.667 348.5,332C 356.727,327.061 364.727,321.895 372.5,316.5C 374.403,316.796 376.07,317.463 377.5,318.5C 345.664,347.048 308.33,358.215 265.5,352C 239.265,347.215 216.265,336.048 196.5,318.5C 198.594,316.625 200.928,316.292 203.5,317.5 Z"/></g>
<g><path style="opacity:0.193" fill="#505050" d="M 372.5,316.5 C 374.693,315.203 377.027,315.203 379.5,316.5C 379.145,317.522 378.478,318.189 377.5,318.5C 376.07,317.463 374.403,316.796 372.5,316.5 Z"/></g>
</svg>
